<svg height='300px' width='300px'  fill="#000000" xmlns:dc="http://purl.org/dc/elements/1.1/" xmlns:cc="http://creativecommons.org/ns#" xmlns:rdf="http://www.w3.org/1999/02/22-rdf-syntax-ns#" xmlns:svg="http://www.w3.org/2000/svg" xmlns="http://www.w3.org/2000/svg" xmlns:sodipodi="http://sodipodi.sourceforge.net/DTD/sodipodi-0.dtd" xmlns:inkscape="http://www.inkscape.org/namespaces/inkscape" viewBox="0 0 80 80" version="1.1" x="0px" y="0px"><path style="" d="m 45.833857,19.314225 7.284166,-2.181821 c 0.644096,-0.192925 1.404272,0.353888 1.761549,1.29655 l 9.620376,25.38308 c 0.357269,0.942647 0.09187,1.846209 -0.520209,2.124494 l -7.284166,3.31179 c -0.612076,0.278284 -1.417696,-0.348926 -1.761546,-1.29655 L 45.313651,21.438719 c -0.343856,-0.94764 -0.12389,-1.931569 0.520206,-2.124494 z" fill="#000000" fill-opacity="1" stroke="none"></path><path style="" d="m 47.438808,4.2897002 c -3.61185,0 -6.55594,2.8126248 -6.795636,6.3637098 L 51.297347,5.470298 C 50.201766,4.7206637 48.866528,4.2897002 47.438808,4.2897002 z m 4.636006,1.8140893 -11.402847,5.5862425 c 0.296017,3.495465 3.194789,6.24853 6.766841,6.24853 3.768602,0 6.824431,-3.055829 6.824431,-6.824431 0,-1.9800808 -0.841297,-3.7638528 -2.188425,-5.0103415 z m -1.87168,3.8585387 c 0,0 3.162163,1.4256288 2.706737,2.5915558 -0.173272,0.443592 -1.033531,0.306133 -1.439754,0.05759 -0.83297,-0.509637 -1.266983,-2.6491468 -1.266983,-2.6491468 z" fill="#000000" fill-opacity="1" stroke="none"></path><path style="" d="m 58.314913,44.584138 c 0.298022,-0.69485 -0.02031,-1.491282 -0.715141,-1.789298 L 29.99402,30.954722 c -0.69486,-0.298027 -1.491274,0.02029 -1.789296,0.715144 l -1.790256,4.174061 c -0.298027,0.69486 0.02028,1.49127 0.715139,1.789296 l 27.605752,11.840119 c 0.694838,0.298017 1.491272,-0.02028 1.789297,-0.715142 l 1.790257,-4.174062 z" fill="#000000" fill-opacity="1" stroke="none"></path><path style="" d="m 57.411548,44.637282 c -0.748406,0.107291 -1.283112,0.796641 -1.175818,1.54504 l 4.262801,29.733726 c 0.107302,0.748424 0.814139,1.259746 1.562545,1.15245 l 4.495822,-0.644547 c 0.748423,-0.107302 1.262679,-0.793684 1.155381,-1.542107 l -4.2628,-29.733728 c -0.10729,-0.748399 -0.793687,-1.26268 -1.54211,-1.155382 l -4.495821,0.644548 z" fill="#000000" fill-opacity="1" stroke="none"></path><path style="" d="m 28.708697,31.481113 -0.715183,-1.6732 c -0.297162,-0.695222 0.02329,-1.494131 0.718516,-1.791294 l 22.58826,-9.654984 c 0.695222,-0.29716 1.494138,0.02329 1.791301,0.718514 l 0.715182,1.6732 c 0.29716,0.695221 -0.0233,1.494142 -0.71852,1.791303 l -22.58826,9.654985 c -0.695221,0.297161 -1.494136,-0.0233 -1.791296,-0.718524 z" fill="#000000" fill-opacity="1" stroke="none"></path><path style="text-indent:0;text-transform:none;direction:ltr;block-progression:tb;baseline-shift:baseline;color:#000000;enable-background:accumulate;" d="m 29.074753,39.009353 a 1.3823015,1.3823015 0 0 0 -1.22379,1.259784 c 0,0 -1.121555,12.344068 -1.547735,16.809121 -0.227055,2.378838 -0.0183,3.87289 -0.07199,4.499229 -0.02685,0.31317 -0.03127,0.357522 -0.143975,0.503914 -0.112704,0.146392 -0.444282,0.425178 -1.079815,0.791864 -0.08732,0.05038 -1.350725,0.258236 -2.915501,0.107982 C 20.527174,62.830993 18.628771,62.49278 16.800856,62.081401 13.145025,61.258644 9.8180521,60.209722 9.8180521,60.209722 a 1.394616,1.394616 0 1 0 -0.8278582,2.663543 c 0,0 3.4113671,1.055306 7.1987671,1.907674 1.893699,0.426183 3.88945,0.802682 5.651032,0.971833 1.761582,0.169152 3.231475,0.305078 4.571217,-0.46792 0.791523,-0.45669 1.379051,-0.91863 1.835685,-1.511741 0.456635,-0.59311 0.66552,-1.309491 0.719877,-1.943667 0.108719,-1.268351 -0.128216,-2.365715 0.07199,-4.463235 C 29.4671,52.878543 30.62249,40.521094 30.62249,40.521094 a 1.3823015,1.3823015 0 0 0 -1.547735,-1.511741 z" fill="#000000" fill-opacity="1" stroke="none" marker="none" visibility="visible" display="inline" overflow="visible"></path><path style="text-indent:0;text-transform:none;direction:ltr;block-progression:tb;baseline-shift:baseline;color:#000000;enable-background:accumulate;" d="m 17.117602,63.866695 0,11.252466 -5.672628,0 0,1.842885 15.722106,0 0,-1.842885 -8.206594,0 0,-11.252466 z" fill="#000000" fill-opacity="1" stroke="none" marker="none" visibility="visible" display="inline" overflow="visible"></path><path style="text-indent:0;text-transform:none;direction:ltr;block-progression:tb;baseline-shift:baseline;color:#000000;enable-background:accumulate;" d="m 55.206277,10.610217 0.107982,0.215963 c 0,0 0.271938,0.484647 0.647889,1.007828 0.375951,0.523181 0.861503,1.108461 1.403759,1.259784 0.257635,0.07189 0.594822,0.103904 0.899846,0.03599 0.152512,-0.03396 0.278879,-0.09098 0.395933,-0.179969 0.117053,-0.08899 0.200697,-0.23648 0.215963,-0.395933 0.0359,-0.375015 -0.1791,-0.697251 -0.503914,-0.935839 -0.324814,-0.238588 -0.758698,-0.43037 -1.187797,-0.575902 -0.858196,-0.291064 -1.727704,-0.395932 -1.727704,-0.395932 l -0.251957,-0.03599 z m 0.539908,0.359939 c 0.235981,0.04051 0.696779,0.132368 1.367766,0.359938 0.414174,0.140469 0.794543,0.294372 1.079815,0.503914 0.285271,0.209541 0.455669,0.435888 0.431926,0.683883 -0.0074,0.07758 -0.03647,0.125598 -0.107982,0.179969 -0.07151,0.05437 -0.198147,0.115969 -0.323944,0.143975 -0.251594,0.05601 -0.554806,0.0561 -0.755871,0 -0.398315,-0.111149 -0.896798,-0.646665 -1.259784,-1.151803 -0.265287,-0.369178 -0.341354,-0.5569 -0.431926,-0.719876 z" fill="#000000" fill-opacity="1" fill-rule="nonzero" stroke="none" marker="none" visibility="visible" display="inline" overflow="visible"></path></svg>